<?xml version="1.0" encoding="UTF-8" standalone="no"?><svg xmlns="http://www.w3.org/2000/svg" xmlns:xlink="http://www.w3.org/1999/xlink" contentScriptType="application/ecmascript" contentStyleType="text/css" height="464px" preserveAspectRatio="none" style="width:666px;height:464px;" version="1.1" viewBox="0 0 666 464" width="666px" zoomAndPan="magnify"><defs><filter height="300%" id="fk1jn5d2ojxxs" width="300%" x="-1" y="-1"><feGaussianBlur result="blurOut" stdDeviation="2.0"/><feColorMatrix in="blurOut" result="blurOut2" type="matrix" values="0 0 0 0 0 0 0 0 0 0 0 0 0 0 0 0 0 0 .4 0"/><feOffset dx="4.0" dy="4.0" in="blurOut2" result="blurOut3"/><feBlend in="SourceGraphic" in2="blurOut3" mode="normal"/></filter></defs><g><line style="stroke: #A80036; stroke-width: 1.0;" x1="47" x2="47" y1="86.2969" y2="183.6953"/><line style="stroke: #A80036; stroke-width: 1.0; stroke-dasharray: 1.0,4.0;" x1="47" x2="47" y1="183.6953" y2="211.6953"/><line style="stroke: #A80036; stroke-width: 1.0;" x1="47" x2="47" y1="211.6953" y2="269.9609"/><line style="stroke: #A80036; stroke-width: 1.0; stroke-dasharray: 1.0,4.0;" x1="47" x2="47" y1="269.9609" y2="297.9609"/><line style="stroke: #A80036; stroke-width: 1.0;" x1="47" x2="47" y1="297.9609" y2="356.2266"/><line style="stroke: #A80036; stroke-width: 1.0; stroke-dasharray: 1.0,4.0;" x1="47" x2="47" y1="356.2266" y2="384.2266"/><line style="stroke: #A80036; stroke-width: 1.0;" x1="47" x2="47" y1="384.2266" y2="452.4922"/><line style="stroke: #A80036; stroke-width: 1.0;" x1="299" x2="299" y1="86.2969" y2="183.6953"/><line style="stroke: #A80036; stroke-width: 1.0; stroke-dasharray: 1.0,4.0;" x1="299" x2="299" y1="183.6953" y2="211.6953"/><line style="stroke: #A80036; stroke-width: 1.0;" x1="299" x2="299" y1="211.6953" y2="269.9609"/><line style="stroke: #A80036; stroke-width: 1.0; stroke-dasharray: 1.0,4.0;" x1="299" x2="299" y1="269.9609" y2="297.9609"/><line style="stroke: #A80036; stroke-width: 1.0;" x1="299" x2="299" y1="297.9609" y2="356.2266"/><line style="stroke: #A80036; stroke-width: 1.0; stroke-dasharray: 1.0,4.0;" x1="299" x2="299" y1="356.2266" y2="384.2266"/><line style="stroke: #A80036; stroke-width: 1.0;" x1="299" x2="299" y1="384.2266" y2="452.4922"/><line style="stroke: #A80036; stroke-width: 1.0;" x1="513.5" x2="513.5" y1="86.2969" y2="183.6953"/><line style="stroke: #A80036; stroke-width: 1.0; stroke-dasharray: 1.0,4.0;" x1="513.5" x2="513.5" y1="183.6953" y2="211.6953"/><line style="stroke: #A80036; stroke-width: 1.0;" x1="513.5" x2="513.5" y1="211.6953" y2="269.9609"/><line style="stroke: #A80036; stroke-width: 1.0; stroke-dasharray: 1.0,4.0;" x1="513.5" x2="513.5" y1="269.9609" y2="297.9609"/><line style="stroke: #A80036; stroke-width: 1.0;" x1="513.5" x2="513.5" y1="297.9609" y2="356.2266"/><line style="stroke: #A80036; stroke-width: 1.0; stroke-dasharray: 1.0,4.0;" x1="513.5" x2="513.5" y1="356.2266" y2="384.2266"/><line style="stroke: #A80036; stroke-width: 1.0;" x1="513.5" x2="513.5" y1="384.2266" y2="452.4922"/><line style="stroke: #A80036; stroke-width: 1.0;" x1="625.5" x2="625.5" y1="86.2969" y2="183.6953"/><line style="stroke: #A80036; stroke-width: 1.0; stroke-dasharray: 1.0,4.0;" x1="625.5" x2="625.5" y1="183.6953" y2="211.6953"/><line style="stroke: #A80036; stroke-width: 1.0;" x1="625.5" x2="625.5" y1="211.6953" y2="269.9609"/><line style="stroke: #A80036; stroke-width: 1.0; stroke-dasharray: 1.0,4.0;" x1="625.5" x2="625.5" y1="269.9609" y2="297.9609"/><line style="stroke: #A80036; stroke-width: 1.0;" x1="625.5" x2="625.5" y1="297.9609" y2="356.2266"/><line style="stroke: #A80036; stroke-width: 1.0; stroke-dasharray: 1.0,4.0;" x1="625.5" x2="625.5" y1="356.2266" y2="384.2266"/><line style="stroke: #A80036; stroke-width: 1.0;" x1="625.5" x2="625.5" y1="384.2266" y2="452.4922"/><text fill="#000000" font-family="sans-serif" font-size="14" lengthAdjust="spacingAndGlyphs" textLength="73" x="8" y="82.9951">subscriber</text><ellipse cx="47.5" cy="54" fill="#FEFECE" filter="url(#fk1jn5d2ojxxs)" rx="12" ry="12" style="stroke: #A80036; stroke-width: 2.0;"/><line style="stroke: #A80036; stroke-width: 2.0;" x1="35.5" x2="59.5" y1="68" y2="68"/><rect fill="#FEFECE" filter="url(#fk1jn5d2ojxxs)" height="30.2969" style="stroke: #A80036; stroke-width: 1.5;" width="47" x="274" y="51"/><text fill="#000000" font-family="sans-serif" font-size="14" lengthAdjust="spacingAndGlyphs" textLength="33" x="281" y="70.9951">IUDX</text><text fill="#000000" font-family="sans-serif" font-size="14" lengthAdjust="spacingAndGlyphs" textLength="128" x="446.5" y="82.9951">owner of publisher</text><ellipse cx="513.5" cy="13" fill="#FEFECE" filter="url(#fk1jn5d2ojxxs)" rx="8" ry="8" style="stroke: #A80036; stroke-width: 2.0;"/><path d="M513.5,21 L513.5,48 M500.5,29 L526.5,29 M513.5,48 L500.5,63 M513.5,48 L526.5,63 " fill="none" filter="url(#fk1jn5d2ojxxs)" style="stroke: #A80036; stroke-width: 2.0;"/><text fill="#000000" font-family="sans-serif" font-size="14" lengthAdjust="spacingAndGlyphs" textLength="64" x="590.5" y="82.9951">publisher</text><ellipse cx="625.5" cy="54" fill="#FEFECE" filter="url(#fk1jn5d2ojxxs)" rx="12" ry="12" style="stroke: #A80036; stroke-width: 2.0;"/><line style="stroke: #A80036; stroke-width: 2.0;" x1="613.5" x2="637.5" y1="68" y2="68"/><polygon fill="#A80036" points="287.5,113.4297,297.5,117.4297,287.5,121.4297,291.5,117.4297" style="stroke: #A80036; stroke-width: 1.0;"/><line style="stroke: #A80036; stroke-width: 1.0;" x1="47.5" x2="293.5" y1="117.4297" y2="117.4297"/><text fill="#000000" font-family="sans-serif" font-size="13" font-weight="bold" lengthAdjust="spacingAndGlyphs" textLength="21" x="54.5" y="112.3638">[1]</text><text fill="#000000" font-family="sans-serif" font-size="13" lengthAdjust="spacingAndGlyphs" textLength="117" x="79.5" y="112.3638">POST /entity/follow</text><polygon fill="#A80036" points="58.5,142.5625,48.5,146.5625,58.5,150.5625,54.5,146.5625" style="stroke: #A80036; stroke-width: 1.0;"/><line style="stroke: #A80036; stroke-width: 1.0;" x1="52.5" x2="298.5" y1="146.5625" y2="146.5625"/><text fill="#000000" font-family="sans-serif" font-size="13" font-weight="bold" lengthAdjust="spacingAndGlyphs" textLength="21" x="64.5" y="141.4966">[2]</text><text fill="#000000" font-family="sans-serif" font-size="13" lengthAdjust="spacingAndGlyphs" textLength="96" x="89.5" y="141.4966">202 ACCEPTED</text><polygon fill="#A80036" points="501.5,171.6953,511.5,175.6953,501.5,179.6953,505.5,175.6953" style="stroke: #A80036; stroke-width: 1.0;"/><line style="stroke: #A80036; stroke-width: 1.0;" x1="299.5" x2="507.5" y1="175.6953" y2="175.6953"/><text fill="#000000" font-family="sans-serif" font-size="13" font-weight="bold" lengthAdjust="spacingAndGlyphs" textLength="21" x="306.5" y="170.6294">[3]</text><text fill="#000000" font-family="sans-serif" font-size="13" lengthAdjust="spacingAndGlyphs" textLength="109" x="331.5" y="170.6294">follow notification</text><polygon fill="#A80036" points="310.5,228.8281,300.5,232.8281,310.5,236.8281,306.5,232.8281" style="stroke: #A80036; stroke-width: 1.0;"/><line style="stroke: #A80036; stroke-width: 1.0;" x1="304.5" x2="512.5" y1="232.8281" y2="232.8281"/><text fill="#000000" font-family="sans-serif" font-size="13" font-weight="bold" lengthAdjust="spacingAndGlyphs" textLength="21" x="316.5" y="227.7622">[4]</text><text fill="#000000" font-family="sans-serif" font-size="13" lengthAdjust="spacingAndGlyphs" textLength="165" x="341.5" y="227.7622">HTTPS POST /owner/share</text><polygon fill="#A80036" points="501.5,257.9609,511.5,261.9609,501.5,265.9609,505.5,261.9609" style="stroke: #A80036; stroke-width: 1.0;"/><line style="stroke: #A80036; stroke-width: 1.0;" x1="299.5" x2="507.5" y1="261.9609" y2="261.9609"/><text fill="#000000" font-family="sans-serif" font-size="13" font-weight="bold" lengthAdjust="spacingAndGlyphs" textLength="21" x="306.5" y="256.895">[5]</text><text fill="#000000" font-family="sans-serif" font-size="13" lengthAdjust="spacingAndGlyphs" textLength="46" x="331.5" y="256.895">200 OK</text><polygon fill="#A80036" points="310.5,315.0938,300.5,319.0938,310.5,323.0938,306.5,319.0938" style="stroke: #A80036; stroke-width: 1.0;"/><line style="stroke: #A80036; stroke-width: 1.0;" x1="304.5" x2="624.5" y1="319.0938" y2="319.0938"/><text fill="#000000" font-family="sans-serif" font-size="13" font-weight="bold" lengthAdjust="spacingAndGlyphs" textLength="21" x="316.5" y="314.0278">[6]</text><text fill="#000000" font-family="sans-serif" font-size="13" lengthAdjust="spacingAndGlyphs" textLength="277" x="341.5" y="314.0278">POST /entity/publish + &lt;message in body&gt;</text><polygon fill="#A80036" points="613.5,344.2266,623.5,348.2266,613.5,352.2266,617.5,348.2266" style="stroke: #A80036; stroke-width: 1.0;"/><line style="stroke: #A80036; stroke-width: 1.0;" x1="299.5" x2="619.5" y1="348.2266" y2="348.2266"/><text fill="#000000" font-family="sans-serif" font-size="13" font-weight="bold" lengthAdjust="spacingAndGlyphs" textLength="21" x="306.5" y="343.1606">[7]</text><text fill="#000000" font-family="sans-serif" font-size="13" lengthAdjust="spacingAndGlyphs" textLength="96" x="331.5" y="343.1606">202 ACCEPTED</text><polygon fill="#A80036" points="287.5,401.3594,297.5,405.3594,287.5,409.3594,291.5,405.3594" style="stroke: #A80036; stroke-width: 1.0;"/><line style="stroke: #A80036; stroke-width: 1.0;" x1="47.5" x2="293.5" y1="405.3594" y2="405.3594"/><text fill="#000000" font-family="sans-serif" font-size="13" font-weight="bold" lengthAdjust="spacingAndGlyphs" textLength="21" x="54.5" y="400.2935">[8]</text><text fill="#000000" font-family="sans-serif" font-size="13" lengthAdjust="spacingAndGlyphs" textLength="134" x="79.5" y="400.2935">GET /entity/subscribe</text><polygon fill="#A80036" points="58.5,430.4922,48.5,434.4922,58.5,438.4922,54.5,434.4922" style="stroke: #A80036; stroke-width: 1.0;"/><line style="stroke: #A80036; stroke-width: 1.0;" x1="52.5" x2="298.5" y1="434.4922" y2="434.4922"/><text fill="#000000" font-family="sans-serif" font-size="13" font-weight="bold" lengthAdjust="spacingAndGlyphs" textLength="21" x="64.5" y="429.4263">[9]</text><text fill="#000000" font-family="sans-serif" font-size="13" lengthAdjust="spacingAndGlyphs" textLength="203" x="89.5" y="429.4263">200 OK + &lt;messages in body&gt;</text><!--
@startuml
hide footbox
autonumber "<b>[0]"

entity subscriber
subscriber -> IUDX: POST /entity/follow

IUDX -> subscriber: 202 ACCEPTED

actor "owner of publisher" as owner

entity publisher

IUDX -> owner : follow notification

...

owner -> IUDX : HTTPS POST /owner/share                                                    
                                                                      
                                                                                 
IUDX -> owner : 200 OK                                                              

...

publisher -> IUDX : POST /entity/publish + <message in body>


IUDX -> publisher:202 ACCEPTED

...
subscriber -> IUDX : GET /entity/subscribe



IUDX -> subscriber: 200 OK + <messages in body>
@enduml

PlantUML version 1.2018.14beta12(Unknown compile time)
(GPL source distribution)
Java Runtime: Java(TM) SE Runtime Environment
JVM: Java HotSpot(TM) 64-Bit Server VM
Java Version: 1.7.0_25-b15
Operating System: Linux
Default Encoding: UTF-8
Language: en
Country: US
--></g></svg>