<?xml version="1.0" encoding="UTF-8" standalone="no"?><svg xmlns="http://www.w3.org/2000/svg" xmlns:xlink="http://www.w3.org/1999/xlink" contentScriptType="application/ecmascript" contentStyleType="text/css" height="494px" preserveAspectRatio="none" style="width:832px;height:494px;" version="1.1" viewBox="0 0 832 494" width="832px" zoomAndPan="magnify"><defs><filter height="300%" id="f1fud1muzxjtx4" width="300%" x="-1" y="-1"><feGaussianBlur result="blurOut" stdDeviation="2.0"/><feColorMatrix in="blurOut" result="blurOut2" type="matrix" values="0 0 0 0 0 0 0 0 0 0 0 0 0 0 0 0 0 0 .4 0"/><feOffset dx="4.0" dy="4.0" in="blurOut2" result="blurOut3"/><feBlend in="SourceGraphic" in2="blurOut3" mode="normal"/></filter></defs><g><line style="stroke: #A80036; stroke-width: 1.0;" x1="69" x2="69" y1="86.2969" y2="129.4297"/><line style="stroke: #A80036; stroke-width: 1.0; stroke-dasharray: 1.0,4.0;" x1="69" x2="69" y1="129.4297" y2="157.4297"/><line style="stroke: #A80036; stroke-width: 1.0;" x1="69" x2="69" y1="157.4297" y2="257.8281"/><line style="stroke: #A80036; stroke-width: 1.0; stroke-dasharray: 1.0,4.0;" x1="69" x2="69" y1="257.8281" y2="285.8281"/><line style="stroke: #A80036; stroke-width: 1.0;" x1="69" x2="69" y1="285.8281" y2="314.9609"/><line style="stroke: #A80036; stroke-width: 1.0; stroke-dasharray: 1.0,4.0;" x1="69" x2="69" y1="314.9609" y2="342.9609"/><line style="stroke: #A80036; stroke-width: 1.0;" x1="69" x2="69" y1="342.9609" y2="482.4922"/><line style="stroke: #A80036; stroke-width: 1.0;" x1="365.5" x2="365.5" y1="86.2969" y2="129.4297"/><line style="stroke: #A80036; stroke-width: 1.0; stroke-dasharray: 1.0,4.0;" x1="365.5" x2="365.5" y1="129.4297" y2="157.4297"/><line style="stroke: #A80036; stroke-width: 1.0;" x1="365.5" x2="365.5" y1="157.4297" y2="257.8281"/><line style="stroke: #A80036; stroke-width: 1.0; stroke-dasharray: 1.0,4.0;" x1="365.5" x2="365.5" y1="257.8281" y2="285.8281"/><line style="stroke: #A80036; stroke-width: 1.0;" x1="365.5" x2="365.5" y1="285.8281" y2="314.9609"/><line style="stroke: #A80036; stroke-width: 1.0; stroke-dasharray: 1.0,4.0;" x1="365.5" x2="365.5" y1="314.9609" y2="342.9609"/><line style="stroke: #A80036; stroke-width: 1.0;" x1="365.5" x2="365.5" y1="342.9609" y2="482.4922"/><line style="stroke: #A80036; stroke-width: 1.0;" x1="662.5" x2="662.5" y1="86.2969" y2="129.4297"/><line style="stroke: #A80036; stroke-width: 1.0; stroke-dasharray: 1.0,4.0;" x1="662.5" x2="662.5" y1="129.4297" y2="157.4297"/><line style="stroke: #A80036; stroke-width: 1.0;" x1="662.5" x2="662.5" y1="157.4297" y2="257.8281"/><line style="stroke: #A80036; stroke-width: 1.0; stroke-dasharray: 1.0,4.0;" x1="662.5" x2="662.5" y1="257.8281" y2="285.8281"/><line style="stroke: #A80036; stroke-width: 1.0;" x1="662.5" x2="662.5" y1="285.8281" y2="314.9609"/><line style="stroke: #A80036; stroke-width: 1.0; stroke-dasharray: 1.0,4.0;" x1="662.5" x2="662.5" y1="314.9609" y2="342.9609"/><line style="stroke: #A80036; stroke-width: 1.0;" x1="662.5" x2="662.5" y1="342.9609" y2="482.4922"/><line style="stroke: #A80036; stroke-width: 1.0;" x1="804" x2="804" y1="86.2969" y2="129.4297"/><line style="stroke: #A80036; stroke-width: 1.0; stroke-dasharray: 1.0,4.0;" x1="804" x2="804" y1="129.4297" y2="157.4297"/><line style="stroke: #A80036; stroke-width: 1.0;" x1="804" x2="804" y1="157.4297" y2="257.8281"/><line style="stroke: #A80036; stroke-width: 1.0; stroke-dasharray: 1.0,4.0;" x1="804" x2="804" y1="257.8281" y2="285.8281"/><line style="stroke: #A80036; stroke-width: 1.0;" x1="804" x2="804" y1="285.8281" y2="314.9609"/><line style="stroke: #A80036; stroke-width: 1.0; stroke-dasharray: 1.0,4.0;" x1="804" x2="804" y1="314.9609" y2="342.9609"/><line style="stroke: #A80036; stroke-width: 1.0;" x1="804" x2="804" y1="342.9609" y2="482.4922"/><text fill="#000000" font-family="sans-serif" font-size="14" lengthAdjust="spacingAndGlyphs" textLength="42" x="45" y="82.9951">admin</text><ellipse cx="69" cy="13" fill="#FEFECE" filter="url(#f1fud1muzxjtx4)" rx="8" ry="8" style="stroke: #A80036; stroke-width: 2.0;"/><path d="M69,21 L69,48 M56,29 L82,29 M69,48 L56,63 M69,48 L82,63 " fill="none" filter="url(#f1fud1muzxjtx4)" style="stroke: #A80036; stroke-width: 2.0;"/><rect fill="#FEFECE" filter="url(#f1fud1muzxjtx4)" height="30.2969" style="stroke: #A80036; stroke-width: 1.5;" width="47" x="340.5" y="51"/><text fill="#000000" font-family="sans-serif" font-size="14" lengthAdjust="spacingAndGlyphs" textLength="33" x="347.5" y="70.9951">IUDX</text><text fill="#000000" font-family="sans-serif" font-size="14" lengthAdjust="spacingAndGlyphs" textLength="43" x="638.5" y="82.9951">owner</text><ellipse cx="663" cy="13" fill="#FEFECE" filter="url(#f1fud1muzxjtx4)" rx="8" ry="8" style="stroke: #A80036; stroke-width: 2.0;"/><path d="M663,21 L663,48 M650,29 L676,29 M663,48 L650,63 M663,48 L676,63 " fill="none" filter="url(#f1fud1muzxjtx4)" style="stroke: #A80036; stroke-width: 2.0;"/><text fill="#000000" font-family="sans-serif" font-size="14" lengthAdjust="spacingAndGlyphs" textLength="38" x="782" y="82.9951">entity</text><ellipse cx="804" cy="54" fill="#FEFECE" filter="url(#f1fud1muzxjtx4)" rx="12" ry="12" style="stroke: #A80036; stroke-width: 2.0;"/><line style="stroke: #A80036; stroke-width: 2.0;" x1="792" x2="816" y1="68" y2="68"/><polygon fill="#FBFB77" filter="url(#f1fud1muzxjtx4)" points="18,101.2969,120,101.2969,130,112.2969,120,124.2969,18,124.2969,8,112.2969,18,101.2969" style="stroke: #A80036; stroke-width: 1.0;"/><text fill="#000000" font-family="sans-serif" font-size="13" lengthAdjust="spacingAndGlyphs" textLength="98" x="20" y="117.3638">logged on IUDX</text><polygon fill="#A80036" points="354,174.5625,364,178.5625,354,182.5625,358,178.5625" style="stroke: #A80036; stroke-width: 1.0;"/><line style="stroke: #A80036; stroke-width: 1.0;" x1="69" x2="360" y1="178.5625" y2="178.5625"/><text fill="#000000" font-family="sans-serif" font-size="13" font-weight="bold" lengthAdjust="spacingAndGlyphs" textLength="21" x="76" y="173.4966">[1]</text><text fill="#000000" font-family="sans-serif" font-size="13" lengthAdjust="spacingAndGlyphs" textLength="223" x="101" y="173.4966">HTTPS POST /admin/register-owner</text><line style="stroke: #A80036; stroke-width: 1.0;" x1="366" x2="408" y1="207.6953" y2="207.6953"/><line style="stroke: #A80036; stroke-width: 1.0;" x1="408" x2="408" y1="207.6953" y2="220.6953"/><line style="stroke: #A80036; stroke-width: 1.0;" x1="367" x2="408" y1="220.6953" y2="220.6953"/><polygon fill="#A80036" points="377,216.6953,367,220.6953,377,224.6953,373,220.6953" style="stroke: #A80036; stroke-width: 1.0;"/><text fill="#000000" font-family="sans-serif" font-size="13" font-weight="bold" lengthAdjust="spacingAndGlyphs" textLength="21" x="373" y="202.6294">[2]</text><text fill="#000000" font-family="sans-serif" font-size="13" lengthAdjust="spacingAndGlyphs" textLength="112" x="398" y="202.6294">create new owner</text><polygon fill="#A80036" points="80,245.8281,70,249.8281,80,253.8281,76,249.8281" style="stroke: #A80036; stroke-width: 1.0;"/><line style="stroke: #A80036; stroke-width: 1.0;" x1="74" x2="365" y1="249.8281" y2="249.8281"/><text fill="#000000" font-family="sans-serif" font-size="13" font-weight="bold" lengthAdjust="spacingAndGlyphs" textLength="21" x="86" y="244.7622">[3]</text><text fill="#000000" font-family="sans-serif" font-size="13" lengthAdjust="spacingAndGlyphs" textLength="248" x="111" y="244.7622">201 CREATED + &lt;credentials in body&gt;</text><polygon fill="#A80036" points="651,302.9609,661,306.9609,651,310.9609,655,306.9609" style="stroke: #A80036; stroke-width: 1.0;"/><line style="stroke: #A80036; stroke-width: 1.0;" x1="69" x2="657" y1="306.9609" y2="306.9609"/><text fill="#000000" font-family="sans-serif" font-size="13" font-weight="bold" lengthAdjust="spacingAndGlyphs" textLength="21" x="76" y="301.895">[4]</text><text fill="#000000" font-family="sans-serif" font-size="13" lengthAdjust="spacingAndGlyphs" textLength="70" x="101" y="301.895">credentials</text><polygon fill="#A80036" points="377,360.0938,367,364.0938,377,368.0938,373,364.0938" style="stroke: #A80036; stroke-width: 1.0;"/><line style="stroke: #A80036; stroke-width: 1.0;" x1="371" x2="662" y1="364.0938" y2="364.0938"/><text fill="#000000" font-family="sans-serif" font-size="13" font-weight="bold" lengthAdjust="spacingAndGlyphs" textLength="21" x="383" y="359.0278">[5]</text><text fill="#000000" font-family="sans-serif" font-size="13" lengthAdjust="spacingAndGlyphs" textLength="219" x="408" y="359.0278">HTTPS POST /owner/register-entity</text><line style="stroke: #A80036; stroke-width: 1.0;" x1="366" x2="408" y1="393.2266" y2="393.2266"/><line style="stroke: #A80036; stroke-width: 1.0;" x1="408" x2="408" y1="393.2266" y2="406.2266"/><line style="stroke: #A80036; stroke-width: 1.0;" x1="367" x2="408" y1="406.2266" y2="406.2266"/><polygon fill="#A80036" points="377,402.2266,367,406.2266,377,410.2266,373,406.2266" style="stroke: #A80036; stroke-width: 1.0;"/><text fill="#000000" font-family="sans-serif" font-size="13" font-weight="bold" lengthAdjust="spacingAndGlyphs" textLength="21" x="373" y="388.1606">[6]</text><text fill="#000000" font-family="sans-serif" font-size="13" lengthAdjust="spacingAndGlyphs" textLength="110" x="398" y="388.1606">create new entity</text><polygon fill="#A80036" points="651,431.3594,661,435.3594,651,439.3594,655,435.3594" style="stroke: #A80036; stroke-width: 1.0;"/><line style="stroke: #A80036; stroke-width: 1.0;" x1="366" x2="657" y1="435.3594" y2="435.3594"/><text fill="#000000" font-family="sans-serif" font-size="13" font-weight="bold" lengthAdjust="spacingAndGlyphs" textLength="21" x="373" y="430.2935">[7]</text><text fill="#000000" font-family="sans-serif" font-size="13" lengthAdjust="spacingAndGlyphs" textLength="248" x="398" y="430.2935">201 CREATED + &lt;credentials in body&gt;</text><polygon fill="#A80036" points="792,460.4922,802,464.4922,792,468.4922,796,464.4922" style="stroke: #A80036; stroke-width: 1.0;"/><line style="stroke: #A80036; stroke-width: 1.0;" x1="663" x2="798" y1="464.4922" y2="464.4922"/><text fill="#000000" font-family="sans-serif" font-size="13" font-weight="bold" lengthAdjust="spacingAndGlyphs" textLength="21" x="670" y="459.4263">[8]</text><text fill="#000000" font-family="sans-serif" font-size="13" lengthAdjust="spacingAndGlyphs" textLength="92" x="695" y="459.4263">&lt;credentials&gt;</text><!--
@startuml
hide footbox
autonumber "<b>[0]"

actor admin

hnote over admin : logged on IUDX 
...

admin -> IUDX : HTTPS POST /admin/register-owner



IUDX -> IUDX : create new owner

IUDX -> admin: 201 CREATED + <credentials in body>

...
actor owner
admin -> owner : credentials

...


owner -> IUDX : HTTPS POST /owner/register-entity

IUDX -> IUDX : create new entity



IUDX -> owner:  201 CREATED + <credentials in body>

entity entity
owner -> entity : <credentials>
@enduml

PlantUML version 1.2018.14beta12(Unknown compile time)
(GPL source distribution)
Java Runtime: Java(TM) SE Runtime Environment
JVM: Java HotSpot(TM) 64-Bit Server VM
Java Version: 1.7.0_25-b15
Operating System: Linux
Default Encoding: UTF-8
Language: en
Country: US
--></g></svg>