<?xml version="1.0" encoding="UTF-8" standalone="no"?><svg xmlns="http://www.w3.org/2000/svg" xmlns:xlink="http://www.w3.org/1999/xlink" contentScriptType="application/ecmascript" contentStyleType="text/css" height="972px" preserveAspectRatio="none" style="width:1128px;height:972px;" version="1.1" viewBox="0 0 1128 972" width="1128px" zoomAndPan="magnify"><defs><filter height="300%" id="fyaf5o1c82ovy" width="300%" x="-1" y="-1"><feGaussianBlur result="blurOut" stdDeviation="2.0"/><feColorMatrix in="blurOut" result="blurOut2" type="matrix" values="0 0 0 0 0 0 0 0 0 0 0 0 0 0 0 0 0 0 .4 0"/><feOffset dx="4.0" dy="4.0" in="blurOut2" result="blurOut3"/><feBlend in="SourceGraphic" in2="blurOut3" mode="normal"/></filter></defs><g><!--cluster Manage owners--><rect fill="#FFFFFF" filter="url(#fyaf5o1c82ovy)" height="374" style="stroke: #000000; stroke-width: 1.5;" width="183" x="22" y="587"/><text fill="#000000" font-family="sans-serif" font-size="14" font-weight="bold" lengthAdjust="spacingAndGlyphs" textLength="126" x="50.5" y="601.9951">Manage owners</text><!--cluster Manage entities--><rect fill="#FFFFFF" filter="url(#fyaf5o1c82ovy)" height="370" style="stroke: #000000; stroke-width: 1.5;" width="179" x="341" y="471"/><text fill="#000000" font-family="sans-serif" font-size="14" font-weight="bold" lengthAdjust="spacingAndGlyphs" textLength="125" x="368" y="485.9951">Manage entities</text><!--cluster Access control--><rect fill="#FFFFFF" filter="url(#fyaf5o1c82ovy)" height="485" style="stroke: #000000; stroke-width: 1.5;" width="182" x="757" y="357"/><text fill="#000000" font-family="sans-serif" font-size="14" font-weight="bold" lengthAdjust="spacingAndGlyphs" textLength="118" x="789" y="371.9951">Access control</text><!--cluster Data access--><rect fill="#FFFFFF" filter="url(#fyaf5o1c82ovy)" height="423" style="stroke: #000000; stroke-width: 1.5;" width="168" x="346.5" y="24"/><text fill="#000000" font-family="sans-serif" font-size="14" font-weight="bold" lengthAdjust="spacingAndGlyphs" textLength="95" x="383" y="38.9951">Data access</text><!--cluster Search--><rect fill="#FFFFFF" filter="url(#fyaf5o1c82ovy)" height="83" style="stroke: #000000; stroke-width: 1.5;" width="169" x="763.5" y="250"/><text fill="#000000" font-family="sans-serif" font-size="14" font-weight="bold" lengthAdjust="spacingAndGlyphs" textLength="55" x="820.5" y="264.9951">Search</text><ellipse cx="113.4543" cy="638.7909" fill="#FEFECE" filter="url(#fyaf5o1c82ovy)" rx="69.4543" ry="16.2909" style="stroke: #A80036; stroke-width: 1.5;"/><text fill="#000000" font-family="sans-serif" font-size="14" lengthAdjust="spacingAndGlyphs" textLength="105" x="60.9543" y="643.4393">Register owner</text><ellipse cx="113.5253" cy="708.0051" fill="#FEFECE" filter="url(#fyaf5o1c82ovy)" rx="75.5253" ry="17.5051" style="stroke: #A80036; stroke-width: 1.5;"/><text fill="#000000" font-family="sans-serif" font-size="14" lengthAdjust="spacingAndGlyphs" textLength="120" x="53.5253" y="712.6535">Deregister owner</text><ellipse cx="113.3742" cy="775.7748" fill="#FEFECE" filter="url(#fyaf5o1c82ovy)" rx="61.8742" ry="14.7748" style="stroke: #A80036; stroke-width: 1.5;"/><text fill="#000000" font-family="sans-serif" font-size="14" lengthAdjust="spacingAndGlyphs" textLength="85" x="70.8742" y="780.4233">Block owner</text><ellipse cx="113.6672" cy="842.1334" fill="#FEFECE" filter="url(#fyaf5o1c82ovy)" rx="68.6672" ry="16.1334" style="stroke: #A80036; stroke-width: 1.5;"/><text fill="#000000" font-family="sans-serif" font-size="14" lengthAdjust="spacingAndGlyphs" textLength="103" x="62.1672" y="846.7819">Unblock owner</text><ellipse cx="113.2811" cy="918.8271" fill="#FEFECE" filter="url(#fyaf5o1c82ovy)" rx="63.2811" ry="25.3271" style="stroke: #A80036; stroke-width: 1.5;"/><text fill="#000000" font-family="sans-serif" font-size="14" lengthAdjust="spacingAndGlyphs" textLength="88" x="69.2811" y="916.3625">Reset owner</text><text fill="#000000" font-family="sans-serif" font-size="14" lengthAdjust="spacingAndGlyphs" textLength="76" x="75.2811" y="932.6594">credentials</text><ellipse cx="430.4975" cy="608.8995" fill="#FEFECE" filter="url(#fyaf5o1c82ovy)" rx="67.4975" ry="15.8995" style="stroke: #A80036; stroke-width: 1.5;"/><text fill="#000000" font-family="sans-serif" font-size="14" lengthAdjust="spacingAndGlyphs" textLength="100" x="380.4975" y="613.5479">Register entity</text><ellipse cx="430.4711" cy="677.0942" fill="#FEFECE" filter="url(#fyaf5o1c82ovy)" rx="73.4711" ry="17.0942" style="stroke: #A80036; stroke-width: 1.5;"/><text fill="#000000" font-family="sans-serif" font-size="14" lengthAdjust="spacingAndGlyphs" textLength="115" x="372.9711" y="681.7427">Deregister entity</text><ellipse cx="430.5685" cy="744.0236" fill="#FEFECE" filter="url(#fyaf5o1c82ovy)" rx="59.5685" ry="14.5236" style="stroke: #A80036; stroke-width: 1.5;"/><text fill="#000000" font-family="sans-serif" font-size="14" lengthAdjust="spacingAndGlyphs" textLength="80" x="390.5685" y="748.6721">Block entity</text><ellipse cx="430.7254" cy="809.2451" fill="#FEFECE" filter="url(#fyaf5o1c82ovy)" rx="66.7254" ry="15.7451" style="stroke: #A80036; stroke-width: 1.5;"/><text fill="#000000" font-family="sans-serif" font-size="14" lengthAdjust="spacingAndGlyphs" textLength="98" x="381.7254" y="813.8935">Unblock entity</text><ellipse cx="430.5168" cy="532.0866" fill="#FEFECE" filter="url(#fyaf5o1c82ovy)" rx="60.5168" ry="25.5866" style="stroke: #A80036; stroke-width: 1.5;"/><text fill="#000000" font-family="sans-serif" font-size="14" lengthAdjust="spacingAndGlyphs" textLength="83" x="389.0168" y="529.2449">Reset entity</text><text fill="#000000" font-family="sans-serif" font-size="14" lengthAdjust="spacingAndGlyphs" textLength="76" x="392.5168" y="545.5417">credentials</text><ellipse cx="847.8648" cy="717.7629" fill="#FEFECE" filter="url(#fyaf5o1c82ovy)" rx="62.3648" ry="24.2629" style="stroke: #A80036; stroke-width: 1.5;"/><text fill="#000000" font-family="sans-serif" font-size="14" lengthAdjust="spacingAndGlyphs" textLength="91" x="802.3648" y="716.9024">Send a follow</text><text fill="#000000" font-family="sans-serif" font-size="14" lengthAdjust="spacingAndGlyphs" textLength="54" x="820.8648" y="733.1993">request</text><ellipse cx="847.9998" cy="801.9531" fill="#FEFECE" filter="url(#fyaf5o1c82ovy)" rx="74.9998" ry="23.9531" style="stroke: #A80036; stroke-width: 1.5;"/><text fill="#000000" font-family="sans-serif" font-size="14" lengthAdjust="spacingAndGlyphs" textLength="112" x="791.9998" y="801.5802">Approve a follow</text><text fill="#000000" font-family="sans-serif" font-size="14" lengthAdjust="spacingAndGlyphs" textLength="54" x="820.9998" y="817.8771">request</text><ellipse cx="848.0122" cy="407.0236" fill="#FEFECE" filter="url(#fyaf5o1c82ovy)" rx="44.0122" ry="14.5236" style="stroke: #A80036; stroke-width: 1.5;"/><text fill="#000000" font-family="sans-serif" font-size="14" lengthAdjust="spacingAndGlyphs" textLength="58" x="819.0122" y="411.6721">Unfollow</text><ellipse cx="847.7607" cy="480.8445" fill="#FEFECE" filter="url(#fyaf5o1c82ovy)" rx="71.7607" ry="24.3445" style="stroke: #A80036; stroke-width: 1.5;"/><text fill="#000000" font-family="sans-serif" font-size="14" lengthAdjust="spacingAndGlyphs" textLength="65" x="815.2607" y="474.8316">Get list of</text><text fill="#000000" font-family="sans-serif" font-size="14" lengthAdjust="spacingAndGlyphs" textLength="105" x="795.2607" y="491.1284">follow requests</text><ellipse cx="848.1326" cy="565.2137" fill="#FEFECE" filter="url(#fyaf5o1c82ovy)" rx="66.1326" ry="24.2137" style="stroke: #A80036; stroke-width: 1.5;"/><text fill="#000000" font-family="sans-serif" font-size="14" lengthAdjust="spacingAndGlyphs" textLength="56" x="820.1326" y="558.9974">Reject a</text><text fill="#000000" font-family="sans-serif" font-size="14" lengthAdjust="spacingAndGlyphs" textLength="97" x="799.6326" y="575.2943">follow request</text><ellipse cx="847.9711" cy="641.0942" fill="#FEFECE" filter="url(#fyaf5o1c82ovy)" rx="73.4711" ry="17.0942" style="stroke: #A80036; stroke-width: 1.5;"/><text fill="#000000" font-family="sans-serif" font-size="14" lengthAdjust="spacingAndGlyphs" textLength="115" x="790.4711" y="645.7427">Get follow status</text><ellipse cx="430.3553" cy="138.0236" fill="#FEFECE" filter="url(#fyaf5o1c82ovy)" rx="38.3553" ry="14.5236" style="stroke: #A80036; stroke-width: 1.5;"/><text fill="#000000" font-family="sans-serif" font-size="14" lengthAdjust="spacingAndGlyphs" textLength="50" x="405.3553" y="142.6721">Publish</text><ellipse cx="430.2904" cy="74.0236" fill="#FEFECE" filter="url(#fyaf5o1c82ovy)" rx="51.7904" ry="14.5236" style="stroke: #A80036; stroke-width: 1.5;"/><text fill="#000000" font-family="sans-serif" font-size="14" lengthAdjust="spacingAndGlyphs" textLength="69" x="395.7904" y="78.6721">Subscribe</text><ellipse cx="430.7194" cy="320.054" fill="#FEFECE" filter="url(#fyaf5o1c82ovy)" rx="63.7194" ry="24.054" style="stroke: #A80036; stroke-width: 1.5;"/><text fill="#000000" font-family="sans-serif" font-size="14" lengthAdjust="spacingAndGlyphs" textLength="49" x="406.2194" y="313.5868">Bind to</text><text fill="#000000" font-family="sans-serif" font-size="14" lengthAdjust="spacingAndGlyphs" textLength="94" x="383.7194" y="329.8837">a data stream</text><ellipse cx="430.3159" cy="404.9744" fill="#FEFECE" filter="url(#fyaf5o1c82ovy)" rx="67.8159" ry="25.4744" style="stroke: #A80036; stroke-width: 1.5;"/><text fill="#000000" font-family="sans-serif" font-size="14" lengthAdjust="spacingAndGlyphs" textLength="84" x="388.3159" y="400.6537">Unbind from</text><text fill="#000000" font-family="sans-serif" font-size="14" lengthAdjust="spacingAndGlyphs" textLength="94" x="383.3159" y="416.9505">a data stream</text><ellipse cx="430.5444" cy="223.9327" fill="#FEFECE" filter="url(#fyaf5o1c82ovy)" rx="64.5444" ry="36.4327" style="stroke: #A80036; stroke-width: 1.5;"/><text fill="#000000" font-family="sans-serif" font-size="14" lengthAdjust="spacingAndGlyphs" textLength="77" x="392.0444" y="210.6463">Get a list of</text><text fill="#000000" font-family="sans-serif" font-size="14" lengthAdjust="spacingAndGlyphs" textLength="73" x="394.0444" y="226.9432">accessible</text><text fill="#000000" font-family="sans-serif" font-size="14" lengthAdjust="spacingAndGlyphs" textLength="90" x="385.5444" y="243.2401">data streams</text><ellipse cx="847.7758" cy="301.0552" fill="#FEFECE" filter="url(#fyaf5o1c82ovy)" rx="68.2758" ry="16.0552" style="stroke: #A80036; stroke-width: 1.5;"/><text fill="#000000" font-family="sans-serif" font-size="14" lengthAdjust="spacingAndGlyphs" textLength="102" x="796.7758" y="305.7036">Search catalog</text><!--entity owner--><ellipse cx="638.5" cy="533.5" fill="#FEFECE" filter="url(#fyaf5o1c82ovy)" rx="8" ry="8" style="stroke: #A80036; stroke-width: 2.0;"/><path d="M638.5,541.5 L638.5,568.5 M625.5,549.5 L651.5,549.5 M638.5,568.5 L625.5,583.5 M638.5,568.5 L651.5,583.5 " fill="none" filter="url(#fyaf5o1c82ovy)" style="stroke: #A80036; stroke-width: 2.0;"/><text fill="#000000" font-family="sans-serif" font-size="14" lengthAdjust="spacingAndGlyphs" textLength="143" x="567" y="603.4951">owner (a legal entity)</text><!--entity admin--><ellipse cx="273" cy="744.5" fill="#FEFECE" filter="url(#fyaf5o1c82ovy)" rx="8" ry="8" style="stroke: #A80036; stroke-width: 2.0;"/><path d="M273,752.5 L273,779.5 M260,760.5 L286,760.5 M273,779.5 L260,794.5 M273,779.5 L286,794.5 " fill="none" filter="url(#fyaf5o1c82ovy)" style="stroke: #A80036; stroke-width: 2.0;"/><text fill="#000000" font-family="sans-serif" font-size="14" lengthAdjust="spacingAndGlyphs" textLength="42" x="252" y="814.4951">admin</text><!--entity entity--><ellipse cx="1051" cy="208" fill="#FEFECE" filter="url(#fyaf5o1c82ovy)" rx="12" ry="12" style="stroke: #A80036; stroke-width: 2.0;"/><line style="stroke: #A80036; stroke-width: 2.0;" x1="1039" x2="1063" y1="222" y2="222"/><text fill="#000000" font-family="sans-serif" font-size="14" lengthAdjust="spacingAndGlyphs" textLength="38" x="1032" y="236.9951">entity</text><!--entity a--><ellipse cx="1051" cy="557" fill="#FEFECE" filter="url(#fyaf5o1c82ovy)" rx="12" ry="12" style="stroke: #A80036; stroke-width: 2.0;"/><line style="stroke: #A80036; stroke-width: 2.0;" x1="1039" x2="1063" y1="571" y2="571"/><text fill="#000000" font-family="sans-serif" font-size="14" lengthAdjust="spacingAndGlyphs" textLength="130" x="986" y="585.9951">autonomous entity</text><!--link Unblock owner to admin--><path d="M162.34,827.958 C178.661,822.648 196.858,816.143 213,809 C226.308,803.111 240.567,795.184 251.732,788.576 " fill="none" id="Unblock owner-admin" style="stroke: #A80036; stroke-width: 1.0;"/><polygon fill="#A80036" points="157.34,829.568,167.1326,830.6194,162.0997,828.0367,164.6824,823.0038,157.34,829.568" style="stroke: #A80036; stroke-width: 1.0;"/><!--link Block owner to admin--><path d="M180.928,776 C206.478,776 233.803,776 251.782,776 " fill="none" id="Block owner-admin" style="stroke: #A80036; stroke-width: 1.0;"/><polygon fill="#A80036" points="175.845,776,184.845,780,180.845,776,184.845,772,175.845,776" style="stroke: #A80036; stroke-width: 1.0;"/><!--link Deregister owner to admin--><path d="M162.676,724.014 C178.872,729.817 196.906,736.742 213,744 C226.278,749.988 240.656,757.758 251.894,764.142 " fill="none" id="Deregister owner-admin" style="stroke: #A80036; stroke-width: 1.0;"/><polygon fill="#A80036" points="157.713,722.25,164.8522,729.0347,162.4239,723.9255,167.533,721.4972,157.713,722.25" style="stroke: #A80036; stroke-width: 1.0;"/><!--link Register owner to admin--><path d="M172.059,651.216 C186.508,656.242 201.231,663.257 213,673 C232.446,689.098 246.791,713.374 256.464,734.316 " fill="none" id="Register owner-admin" style="stroke: #A80036; stroke-width: 1.0;"/><polygon fill="#A80036" points="167.175,649.587,174.4458,656.2304,171.9178,651.1699,176.9784,648.6419,167.175,649.587" style="stroke: #A80036; stroke-width: 1.0;"/><!--link Reset owner\ncredentials to admin--><path d="M169.785,901.9911 C184.939,895.5239 200.593,886.9854 213,876 C230.96,860.099 244.971,837.373 254.824,817.603 " fill="none" id="Reset owner\ncredentials-admin" style="stroke: #A80036; stroke-width: 1.0;"/><polygon fill="#A80036" points="165.102,903.9321,174.9477,904.1816,169.721,902.0178,171.8848,896.7911,165.102,903.9321" style="stroke: #A80036; stroke-width: 1.0;"/><!--link admin to Unblock entity--><path d="M294.011,780.247 C314.551,784.606 347.41,791.579 375.624,797.566 " fill="none" id="admin-Unblock entity" style="stroke: #A80036; stroke-width: 1.0;"/><polygon fill="#A80036" points="380.834,798.672,372.861,792.89,375.943,797.6335,371.1995,800.7155,380.834,798.672" style="stroke: #A80036; stroke-width: 1.0;"/><!--link admin to Block entity--><path d="M294.011,771.882 C315.49,767.462 350.437,760.27 379.459,754.298 " fill="none" id="admin-Block entity" style="stroke: #A80036; stroke-width: 1.0;"/><polygon fill="#A80036" points="384.432,753.274,374.8101,751.1717,379.5348,754.2826,376.4239,759.0072,384.432,753.274" style="stroke: #A80036; stroke-width: 1.0;"/><!--link Reset entity\ncredentials to owner--><path d="M492.195,541.723 C515.646,545.48 542.639,549.804 566.946,553.698 " fill="none" id="Reset entity\ncredentials-owner" style="stroke: #A80036; stroke-width: 1.0;"/><polygon fill="#A80036" points="487.247,540.93,495.5019,546.3018,492.1842,541.72,496.766,538.4023,487.247,540.93" style="stroke: #A80036; stroke-width: 1.0;"/><!--link Register entity to owner--><path d="M485.995,597.36 C510.787,592.065 540.438,585.732 566.908,580.078 " fill="none" id="Register entity-owner" style="stroke: #A80036; stroke-width: 1.0;"/><polygon fill="#A80036" points="481.104,598.405,490.7415,600.4345,485.9935,597.3594,489.0685,592.6114,481.104,598.405" style="stroke: #A80036; stroke-width: 1.0;"/><!--link Deregister entity to owner--><path d="M482.338,662.072 C497.406,656.86 513.694,650.427 528,643 C547.679,632.783 567.832,619.408 585.397,606.625 " fill="none" id="Deregister entity-owner" style="stroke: #A80036; stroke-width: 1.0;"/><polygon fill="#A80036" points="477.279,663.792,487.0876,664.6813,482.0128,662.1822,484.5119,657.1073,477.279,663.792" style="stroke: #A80036; stroke-width: 1.0;"/><!--link Unblock entity to owner--><path d="M487.705,797.702 C502.005,792.813 516.547,785.86 528,776 C580.545,730.763 611.282,654.029 626.205,606.62 " fill="none" id="Unblock entity-owner" style="stroke: #A80036; stroke-width: 1.0;"/><polygon fill="#A80036" points="482.87,799.283,492.6672,800.2901,487.6228,797.7302,490.1827,792.6857,482.87,799.283" style="stroke: #A80036; stroke-width: 1.0;"/><!--link Block entity to owner--><path d="M482.238,733.482 C497.877,728.644 514.513,721.739 528,712 C566.184,684.428 596.816,639.605 615.866,606.692 " fill="none" id="Block entity-owner" style="stroke: #A80036; stroke-width: 1.0;"/><polygon fill="#A80036" points="477.421,734.918,487.1887,736.1797,482.2126,733.4894,484.9029,728.5132,477.421,734.918" style="stroke: #A80036; stroke-width: 1.0;"/><!--link owner to Approve a follow\nrequest--><path d="M653.716,606.759 C670.405,650.212 701.925,717.701 749,760 C760.071,769.948 773.856,777.791 787.558,783.869 " fill="none" id="owner-Approve a follow\nrequest" style="stroke: #A80036; stroke-width: 1.0;"/><polygon fill="#A80036" points="792.197,785.863,785.5082,778.6339,787.6034,783.8884,782.3489,785.9836,792.197,785.863" style="stroke: #A80036; stroke-width: 1.0;"/><!--link owner to Send a follow\nrequest--><path d="M673.495,606.664 C693.641,629.377 720.71,656.706 749,676 C762.998,685.546 779.514,693.635 794.958,700.089 " fill="none" id="owner-Send a follow\nrequest" style="stroke: #A80036; stroke-width: 1.0;"/><polygon fill="#A80036" points="799.713,702.039,792.9032,694.9238,795.0867,700.1422,789.8683,702.3258,799.713,702.039" style="stroke: #A80036; stroke-width: 1.0;"/><!--link owner to Unfollow--><path d="M666.601,523.455 C686.452,495.988 715.667,461.101 749,439 C765.635,427.971 786.373,420.478 804.483,415.534 " fill="none" id="owner-Unfollow" style="stroke: #A80036; stroke-width: 1.0;"/><polygon fill="#A80036" points="809.516,414.206,799.7933,412.6348,804.6815,415.4818,801.8345,420.37,809.516,414.206" style="stroke: #A80036; stroke-width: 1.0;"/><!--link Bind to\na data stream to owner--><path d="M486.313,336.455 C501.044,342.747 516.156,351.113 528,362 C576.644,406.713 608.071,478.118 624.268,523.233 " fill="none" id="Bind to\na data stream-owner" style="stroke: #A80036; stroke-width: 1.0;"/><polygon fill="#A80036" points="481.337,334.4,488.1287,341.5325,485.9584,336.3086,491.1824,334.1383,481.337,334.4" style="stroke: #A80036; stroke-width: 1.0;"/><!--link Unbind from\n a data stream to owner--><path d="M465.237,431.203 C497.354,456.149 546.215,494.099 583.706,523.218 " fill="none" id="Unbind from\n a data stream-owner" style="stroke: #A80036; stroke-width: 1.0;"/><polygon fill="#A80036" points="461.015,427.924,465.6688,436.604,464.9637,430.9912,470.5764,430.2861,461.015,427.924" style="stroke: #A80036; stroke-width: 1.0;"/><!--link Get a list of\naccessible\ndata streams to owner--><path d="M488.319,247.258 C502.742,255.291 517.194,265.493 528,278 C590.758,350.638 619.397,463.017 630.871,523.34 " fill="none" id="Get a list of\naccessible\ndata streams-owner" style="stroke: #A80036; stroke-width: 1.0;"/><polygon fill="#A80036" points="483.848,244.834,489.854,252.6397,488.2437,247.2168,493.6665,245.6066,483.848,244.834" style="stroke: #A80036; stroke-width: 1.0;"/><!--link owner to Get list of\nfollow requests--><path d="M710.04,536.444 C738.355,524.982 770.359,512.026 796.306,501.522 " fill="none" id="owner-Get list of\nfollow requests" style="stroke: #A80036; stroke-width: 1.0;"/><polygon fill="#A80036" points="801.078,499.59,791.2347,499.2604,796.4435,501.4666,794.2373,506.6755,801.078,499.59" style="stroke: #A80036; stroke-width: 1.0;"/><!--link owner to Reject a\nfollow request--><path d="M710.04,565 C731.576,565 755.247,565 776.763,565 " fill="none" id="owner-Reject a\nfollow request" style="stroke: #A80036; stroke-width: 1.0;"/><polygon fill="#A80036" points="781.894,565,772.894,561,776.894,565,772.894,569,781.894,565" style="stroke: #A80036; stroke-width: 1.0;"/><!--link owner to Get follow status--><path d="M710.058,592.448 C722.985,597.367 736.377,602.391 749,607 C765.71,613.102 784.116,619.557 800.421,625.184 " fill="none" id="owner-Get follow status" style="stroke: #A80036; stroke-width: 1.0;"/><polygon fill="#A80036" points="805.409,626.903,798.2021,620.1903,800.6815,625.2748,795.597,627.7542,805.409,626.903" style="stroke: #A80036; stroke-width: 1.0;"/><!--link owner to Search catalog--><path d="M657.778,523.278 C676.79,482.83 709.307,421.135 749,376 C769.078,353.17 797.009,332.605 817.918,318.809 " fill="none" id="owner-Search catalog" style="stroke: #A80036; stroke-width: 1.0;"/><polygon fill="#A80036" points="822.268,315.969,812.545,317.5384,818.0809,318.7018,816.9175,324.2377,822.268,315.969" style="stroke: #A80036; stroke-width: 1.0;"/><!--link Publish to entity--><path d="M474.179,140.257 C563.941,145.471 778.614,160.401 956,192 C982.697,196.756 1012.99,205.022 1031.8,210.503 " fill="none" id="Publish-entity" style="stroke: #A80036; stroke-width: 1.0;"/><polygon fill="#A80036" points="468.965,139.957,477.7191,144.4698,473.9567,140.2456,478.1809,136.4831,468.965,139.957" style="stroke: #A80036; stroke-width: 1.0;"/><!--link Subscribe to entity--><path d="M487.71,74.881 C584.507,78.024 787.619,91.805 947,151 C979.31,163 1012.23,186.07 1031.89,201.249 " fill="none" id="Subscribe-entity" style="stroke: #A80036; stroke-width: 1.0;"/><polygon fill="#A80036" points="482.617,74.722,491.4881,79.0004,487.6146,74.8777,491.7372,71.0043,482.617,74.722" style="stroke: #A80036; stroke-width: 1.0;"/><!--link Get a list of\naccessible\ndata streams to entity--><path d="M500.401,223.109 C640.788,221.293 953.324,217.25 1031.84,216.235 " fill="none" id="Get a list of\naccessible\ndata streams-entity" style="stroke: #A80036; stroke-width: 1.0;"/><polygon fill="#A80036" points="495.072,223.178,504.1227,227.062,500.0716,223.1137,504.0198,219.0626,495.072,223.178" style="stroke: #A80036; stroke-width: 1.0;"/><!--link Search catalog to entity--><path d="M886.816,285.008 C930.092,266.708 999.181,237.491 1031.81,223.693 " fill="none" id="Search catalog-entity" style="stroke: #A80036; stroke-width: 1.0;"/><polygon fill="#A80036" points="882.191,286.964,892.0382,287.1426,886.7961,285.0165,888.9222,279.7744,882.191,286.964" style="stroke: #A80036; stroke-width: 1.0;"/><!--link entity to a--><path d="M1051,260.264 C1051,334.729 1051,482.614 1051,540.736 " fill="none" id="entity-a" style="stroke: #A80036; stroke-width: 1.0;"/><polygon fill="none" points="1044,260.103,1051,240.103,1058,260.103,1044,260.103" style="stroke: #A80036; stroke-width: 1.0;"/><text fill="#000000" font-family="sans-serif" font-size="13" lengthAdjust="spacingAndGlyphs" textLength="30" x="1024.5" y="395.0669">is an</text><!--link Send a follow\nrequest to a--><path d="M901.225,700.352 C916.676,693.909 933.15,685.759 947,676 C981.599,651.62 1013.42,614.003 1032.27,589.441 " fill="none" id="Send a follow\nrequest-a" style="stroke: #A80036; stroke-width: 1.0;"/><polygon fill="#A80036" points="896.466,702.297,906.3104,702.5942,901.0943,700.4051,903.2834,695.189,896.466,702.297" style="stroke: #A80036; stroke-width: 1.0;"/><!--link Approve a follow\nrequest to a--><path d="M908.853,783.966 C922.474,777.896 936.118,770.033 947,760 C999.636,711.467 1030.33,629.789 1043.06,589.285 " fill="none" id="Approve a follow\nrequest-a" style="stroke: #A80036; stroke-width: 1.0;"/><polygon fill="#A80036" points="904.239,785.956,914.0873,786.0651,908.8303,783.9761,910.9194,778.7191,904.239,785.956" style="stroke: #A80036; stroke-width: 1.0;"/><!--link Reject a\nfollow request to a--><path d="M919.408,565 C940.988,565 964.608,565 985.755,565 " fill="none" id="Reject a\nfollow request-a" style="stroke: #A80036; stroke-width: 1.0;"/><polygon fill="#A80036" points="914.259,565,923.259,569,919.259,565,923.259,561,914.259,565" style="stroke: #A80036; stroke-width: 1.0;"/><!--link Get follow status to a--><path d="M895.652,625.382 C911.964,619.771 930.355,613.276 947,607 C961.817,601.413 977.71,595.096 992.469,589.09 " fill="none" id="Get follow status-a" style="stroke: #A80036; stroke-width: 1.0;"/><polygon fill="#A80036" points="890.661,627.093,900.4721,627.9548,895.3902,625.4699,897.8751,620.3881,890.661,627.093" style="stroke: #A80036; stroke-width: 1.0;"/><!--link Unfollow to a--><path d="M891.678,415.295 C909.817,420.196 930.533,427.721 947,439 C986.51,466.063 1018.85,512.526 1036.2,540.834 " fill="none" id="Unfollow-a" style="stroke: #A80036; stroke-width: 1.0;"/><polygon fill="#A80036" points="886.635,413.982,894.3365,420.1209,891.4736,415.242,896.3526,412.3791,886.635,413.982" style="stroke: #A80036; stroke-width: 1.0;"/><!--link Get list of\nfollow requests to a--><path d="M898.953,501.876 C927.3,513.722 962.901,528.6 992.419,540.936 " fill="none" id="Get list of\nfollow requests-a" style="stroke: #A80036; stroke-width: 1.0;"/><polygon fill="#A80036" points="894.108,499.851,900.8705,507.0112,898.7216,501.7784,903.9544,499.6295,894.108,499.851" style="stroke: #A80036; stroke-width: 1.0;"/><!--
@startuml
left to right direction

actor owner as "owner (a legal entity)"


rectangle "Manage owners" {

	(Register owner)
	(Deregister owner)
	(Block owner)
	(Unblock owner)
	(Reset owner\ncredentials)

}

rectangle "Manage entities" {
	(Register entity)
	(Deregister entity)
	(Block entity)
	(Unblock entity)
	(Reset entity\ncredentials)

}

rectangle "Access control" {

	(Send a follow\nrequest)
	(Approve a follow\nrequest)
	(Unfollow)
	(Get list of\nfollow requests)
	(Reject a\nfollow request)
	(Get follow status)
}

rectangle "Data access" {

	(Publish)
	(Subscribe)

	(Bind to\na data stream)
	(Unbind from\n a data stream)
	(Get a list of\naccessible\ndata streams)
}

rectangle "Search" {
	(Search catalog)
}


(Unblock owner) <- - admin
(Block owner) <- - admin
(Deregister owner) <- - admin
(Register owner) <- - admin
(Reset owner\ncredentials) <- - admin


admin - -> (Unblock entity)
admin - -> (Block entity)

(Reset entity\ncredentials) <- - owner
(Register entity) <- - owner
(Deregister entity) <- - owner
(Unblock entity) <- - owner
(Block entity) <- - owner


owner - -> (Approve a follow\nrequest)
owner - -> (Send a follow\nrequest)
owner - -> (Unfollow)


(Bind to\na data stream) <- - owner
(Unbind from\n a data stream) <- - owner
(Get a list of\naccessible\ndata streams) <- - owner

owner - -> (Get list of\nfollow requests)
owner - -> (Reject a\nfollow request)
owner - -> (Get follow status)

owner - -> (Search catalog)

entity entity

(Publish) <- - entity
(Subscribe) <- - entity
(Get a list of\naccessible\ndata streams) <- - entity
(Search catalog) <- - entity

entity "autonomous entity" as a
entity <|- a : is an

(Send a follow\nrequest) <- - a
(Approve a follow\nrequest) <- - a
(Reject a\nfollow request) <- - a
(Get follow status) <- - a
(Unfollow) <- - a
(Get list of\nfollow requests) <- - a
@enduml

PlantUML version 1.2018.15beta2(Unknown compile time)
(GPL source distribution)
Java Runtime: Java(TM) SE Runtime Environment
JVM: Java HotSpot(TM) 64-Bit Server VM
Java Version: 1.7.0_25-b15
Operating System: Linux
Default Encoding: UTF-8
Language: en
Country: US
--></g></svg>